<svg width="10" height="7" viewBox="0 0 10 7" fill="none" xmlns="http://www.w3.org/2000/svg">
<path d="M3.77308 6.49691L3.77308 6.497L3.77987 6.49691C3.93489 6.4948 4.08352 6.43483 4.19659 6.32876L4.19668 6.32885L4.20233 6.3232L9.09643 1.4291L9.10511 1.42042L9.1129 1.41093C9.20802 1.29503 9.25663 1.1479 9.24927 0.998151C9.24192 0.8484 9.17912 0.706738 9.07311 0.600721C8.96709 0.494704 8.82543 0.43191 8.67568 0.424556C8.52593 0.417201 8.37879 0.46581 8.2629 0.560929L8.25336 0.568756L8.24464 0.577484L3.77657 5.04976L1.75545 3.02463L1.74669 3.01585L1.7371 3.00798C1.62121 2.91286 1.47407 2.86425 1.32432 2.87161C1.17457 2.87896 1.03291 2.94175 0.926893 3.04777C0.820875 3.15379 0.758082 3.29545 0.750727 3.4452C0.743373 3.59495 0.791982 3.74208 0.8871 3.85798L0.89489 3.86747L0.903572 3.87615L3.35062 6.3232L3.35053 6.3233L3.35636 6.32876C3.46942 6.43483 3.61806 6.4948 3.77308 6.49691Z" fill="#ED8936" stroke="#ED8936" stroke-width="0.5"/>
</svg>
